<svg fill="#fefce8" version="1.1" id="Layer_1" xmlns="http://www.w3.org/2000/svg" xmlns:xlink="http://www.w3.org/1999/xlink" viewBox="0 0 512 512" xml:space="preserve" stroke="#fefce8"><g id="SVGRepo_bgCarrier" stroke-width="0"></g><g id="SVGRepo_tracerCarrier" stroke-linecap="round" stroke-linejoin="round"></g><g id="SVGRepo_iconCarrier"> <g> <g> <path d="M127.387,336.999c-5.653,1.417-11.129,3.519-16.276,6.249l7.802,14.71c3.96-2.099,8.172-3.716,12.522-4.807 L127.387,336.999z"></path> </g> </g> <g> <g> <path d="M85.307,366.314c-3.296,4.824-5.993,10.041-8.015,15.505l15.616,5.779c1.549-4.188,3.618-8.189,6.147-11.892 L85.307,366.314z"></path> </g> </g> <g> <g> <path d="M74.766,390.191c-1.274,5.4-1.92,10.978-1.92,16.578v0.646h16.65v-0.646c0-4.315,0.496-8.606,1.475-12.754L74.766,390.191 z"></path> </g> </g> <g> <g> <path d="M103.658,347.801c-4.782,3.331-9.155,7.239-12.996,11.615l12.511,10.987c2.956-3.368,6.323-6.375,10.004-8.94 L103.658,347.801z"></path> </g> </g> <g> <g> <path d="M224.273,103.377v128.298h64.498V103.377H224.273z M272.121,215.024h-31.198v-94.997h31.198V215.024z"></path> </g> </g> <g> <g> <rect x="199.805" y="110.829" width="16.65" height="16.65"></rect> </g> </g> <g> <g> <rect x="199.805" y="159.74" width="16.65" height="15.61"></rect> </g> </g> <g> <g> <rect x="199.805" y="207.61" width="16.65" height="15.61"></rect> </g> </g> <g> <g> <rect x="295.545" y="110.829" width="16.65" height="16.65"></rect> </g> </g> <g> <g> <rect x="295.545" y="159.74" width="16.65" height="15.61"></rect> </g> </g> <g> <g> <rect x="295.545" y="207.61" width="16.65" height="15.61"></rect> </g> </g> <g> <g> <path d="M409.244,213.857l-11.632,11.913c4.613,4.504,9.963,8.022,15.902,10.455l6.313-15.407 C415.879,219.2,412.318,216.858,409.244,213.857z"></path> </g> </g> <g> <g> <path d="M400.219,197.507l-16.315,3.323c1.285,6.314,3.821,12.244,7.535,17.628l13.705-9.456 C402.711,205.475,401.053,201.608,400.219,197.507z"></path> </g> </g> <g> <g> <path d="M392.912,331.568l-15.229,6.733c2.584,5.845,6.252,11.094,10.901,15.6l11.59-11.955 C397.071,338.938,394.626,335.445,392.912,331.568z"></path> </g> </g> <g> <g> <path d="M405.156,345.935l-9.124,13.928c5.445,3.567,11.398,5.981,17.694,7.174l3.1-16.36 C412.69,349.894,408.763,348.298,405.156,345.935z"></path> </g> </g> <g> <g> <rect x="471.415" y="342.894" width="16.65" height="23.935"></rect> </g> </g> <g> <g> <path d="M0,0.52v311.154h143.61v22.987c-2.718,0.037-5.266,0.213-7.891,0.54l2.113,16.522c1.916-0.238,3.942-0.372,5.779-0.411 v7.191h16.65v-63.48H16.65V17.171h136.298l-0.528,56.195h190.994v110.309h39.545v7.285h16.65v-7.285h8.325v-16.65h-47.87v-14.569 H384v-9.897c2.533,0.899,5.256,1.392,8.093,1.392c13.385,0,24.274-10.889,24.274-24.275c0-13.385-10.889-24.274-24.274-24.274 c-2.838,0-5.56,0.494-8.093,1.392v-8.859h-23.935V17.171h7.754v56.048h120.322V17.171h7.209v63.176 c-17.999,3.883-31.898,20.039-31.898,39.33s13.899,35.449,31.898,39.33v8.017h-64.52v56.168c-1.659-0.059-3.317-0.242-4.943-0.559 l-3.181,16.343c2.672,0.52,5.4,0.801,8.124,0.866v0.027h1.138h8.227h7.285v-56.195h47.87v111.35h-64.52v56.195h-7.285v16.65h7.285 h8.325h8.325v-56.195h47.87v70.819H375.793v96.398H495.35v15.938H303.87V480.26h40.585V342.894H303.87v-31.219h69.724v7.374 c0.001,3.39,0.368,6.788,1.094,10.101l16.266-3.559c-0.469-2.147-0.709-4.35-0.71-6.545v-7.371h10.406v-16.65H287.22v199.805 H272.65v-31.22h-96.78v31.22h-15.61v-80.13H72.846v16.65h70.764v80.13H512v-32.588v-96.398V0.52H0z M192.52,17.171h46.829V31.74 H192.52V17.171z M343.415,56.715H169.229l0.37-39.545h6.271V48.39H256V17.171h87.415V56.715z M392.093,112.053 c4.204,0,7.624,3.421,7.624,7.624c0,4.204-3.42,7.625-7.624,7.625s-7.624-3.421-7.624-7.625 C384.469,115.473,387.889,112.053,392.093,112.053z M367.35,104.585v31.219h-7.285v-31.219H367.35z M471.491,56.569h-87.021 V17.397h87.021V56.569z M303.87,359.545h23.935V463.61H303.87V359.545z M256,494.829h-63.48V480.26H256V494.829z M463.089,462.241 h-70.646v-63.097h70.646V462.241z M495.35,462.241h-15.61v-63.097h15.61V462.241z M495.35,141.646 c-8.699-3.427-15.248-11.979-15.248-21.969c0-9.989,6.549-18.541,15.248-21.968V141.646z"></path> </g> </g> <g> <g> <rect x="24.976" y="271.089" width="128" height="16.65"></rect> </g> </g> <g> <g> <path d="M161.175,135.978v-16.65V95.403H24.904v23.924v16.65v39.874h136.272v-39.874H161.175z M144.526,159.2h-0.001H41.554 v-23.223h102.971V159.2z M144.526,119.327h-0.001H41.554v-7.274h102.971V119.327z"></path> </g> </g> </g></svg>